<svg id="图层_1" data-name="图层 1" xmlns="http://www.w3.org/2000/svg" viewBox="0 0 1638.75 478.58"><defs><style>.cls-1{fill:#231815;}.cls-2{fill:#2580b4;}</style></defs><title>Asicotech-logo 矢量文件V3</title><path class="cls-1" d="M377.49,478.16a2.26,2.26,0,0,1-2-3.34L477.92,284.63a6.36,6.36,0,0,1,5.58-3.33h42.44a4.52,4.52,0,0,1,4.44,3.73l33.15,189.4a3.19,3.19,0,0,1-3.14,3.73h-35a4.54,4.54,0,0,1-4.46-3.73l-6.56-35.92a2.27,2.27,0,0,0-2.23-1.86h-73.9a3.17,3.17,0,0,0-2.79,1.67l-19.54,36.49a6.32,6.32,0,0,1-5.57,3.35Zm129.84-74.49A1.64,1.64,0,0,0,509,401.8l-11.45-81.67a.61.61,0,0,0-.6-.52.87.87,0,0,0-.77.47L453.69,402a1.15,1.15,0,0,0,1,1.68Z" transform="translate(0 0)"/><path class="cls-1" d="M673.93,376.42a3.61,3.61,0,0,1-3.78-3q-.92-9.89-15.66-10.82-16,0-18.2,12.76-1.51,8.54,24,14.91,40,3,42.83,41.86a19.19,19.19,0,0,1-.86,7.42q-11.68,35-68.18,39-55.61-1-53.66-37.8a4,4,0,0,1,4.11-3.7h30.74a4.09,4.09,0,0,1,4,3.51Q621,452.13,638.54,453q19.16,0,21.78-14.9,1-11.69-24.67-17-50.45-9.58-42.12-44.69Q602,340.26,659.19,336q49.67,0,48.45,36.73a3.94,3.94,0,0,1-4,3.7Z" transform="translate(0 0)"/><path class="cls-1" d="M781.47,341.26a3.18,3.18,0,0,1,3.13,3.73L761.7,474.8a4.52,4.52,0,0,1-4.45,3.73H723.34a3.18,3.18,0,0,1-3.13-3.73L743.1,345a4.51,4.51,0,0,1,4.43-3.73ZM793,281.67a3.18,3.18,0,0,1,3.13,3.73L791.28,313a4.5,4.5,0,0,1-4.43,3.73H750.79a3.18,3.18,0,0,1-3.13-3.73l4.87-27.65a4.52,4.52,0,0,1,4.45-3.73Z" transform="translate(0 0)"/><path class="cls-1" d="M887.87,388.08c-1.86,0-3.65-1.23-3.56-3.1q1-22.45-17-22.44-14.92,0-25,39.37l-.75,4.25c-.13.72-.38,2.13-.76,4.25Q835.39,453,852.43,453q18,0,24.14-23.38a4.58,4.58,0,0,1,4.56-3.22H914c1.8,0,3.44,1.46,3,3.21q-13.38,48.94-69,48.93-57.08-2.14-49.34-70.24,17.33-68.08,74.48-72.36Q929.38,338,924.89,385c-.19,2-2.16,3.07-4.14,3.07Z" transform="translate(0 0)"/><path class="cls-1" d="M996.9,478.53q-67.72-2.14-58.91-70.24,15.39-69.16,84.05-72.36,67.53,3.19,58.53,72.36Q1065.37,476.41,996.9,478.53Zm4.5-25.55q29.79,0,37.68-44.69,9.12-45.74-21.72-45.75-28.74,0-36.8,45.75Q972.68,453,1001.4,453Z" transform="translate(0 0)"/><path class="cls-1" d="M1131,339a2.25,2.25,0,0,0,2.21-1.86l6.14-35.46a4.54,4.54,0,0,1,4.44-3.76l34.14-.37a3.15,3.15,0,0,1,3.13,3.69l-6.34,35.9a1.58,1.58,0,0,0,1.56,1.86h24.13a3.18,3.18,0,0,1,3.13,3.73L1200,363a4.51,4.51,0,0,1-4.44,3.73h-24.11a2.26,2.26,0,0,0-2.23,1.86l-10.92,62q-6.65,25.53,12,22.34a91.09,91.09,0,0,0,10.68-.59,2.64,2.64,0,0,1,2.69,3.26l-3,17a5.15,5.15,0,0,1-4.95,4q-14.94.93-29.07,1.87-40.84,2.11-30.43-44.7l11.49-65.18a1.58,1.58,0,0,0-1.57-1.86h-22A3.18,3.18,0,0,1,1101,363l3.58-20.21A4.51,4.51,0,0,1,1109,339Z" transform="translate(0 0)"/><path class="cls-1" d="M1250.85,418.92a2.49,2.49,0,0,0-2.31,2.16Q1242.46,454,1266.37,453q18.13,1,26.84-13.79a6.44,6.44,0,0,1,5.49-3.23h29.66a2.82,2.82,0,0,1,2.49,3.9q-14.24,38.67-69,38.67-66.17,1-52.53-70.24,15.39-69.16,77.67-72.36,42.55,0,52.89,31.91a55.12,55.12,0,0,1,3.13,24.48q-1,11.18-3,23.17a4.31,4.31,0,0,1-4.37,3.44Zm49-27.67a2.16,2.16,0,0,0,2.18-1.77q4-27-19.7-27-21.66,0-28.07,27a1.47,1.47,0,0,0,1.49,1.77Z" transform="translate(0 0)"/><path class="cls-1" d="M1446.52,388.08c-1.86,0-3.65-1.23-3.56-3.1q1-22.45-17-22.44-14.91,0-25,39.37c-.37,2.13-.63,3.56-.75,4.25s-.39,2.13-.76,4.25Q1394,453,1411.09,453q18,0,24.14-23.38a4.59,4.59,0,0,1,4.56-3.22h32.88c1.8,0,3.44,1.46,3,3.21q-13.38,48.94-69,48.93-57.08-2.14-49.34-70.24,17.33-68.08,74.48-72.36Q1488,338,1483.54,385c-.19,2-2.16,3.07-4.14,3.07Z" transform="translate(0 0)"/><path class="cls-1" d="M1495,478.53a3.17,3.17,0,0,1-3.13-3.73l33.4-189.4a4.5,4.5,0,0,1,4.43-3.73h32.88a3.18,3.18,0,0,1,3.13,3.73l-12.76,72.36a.44.44,0,0,0,.43.52,1.33,1.33,0,0,0,1-.63q15.25-19.57,44.59-19.59,36.49,4.26,39.44,29.8.94,12.76-.56,21.27l-15.11,85.66a4.5,4.5,0,0,1-4.43,3.73h-33.94a3.18,3.18,0,0,1-3.13-3.73l13.8-78.21q5.63-31.92-18.85-31.92-21.68,2.14-30.11,31.92l-13.79,78.21a4.52,4.52,0,0,1-4.45,3.73Z" transform="translate(0 0)"/><path class="cls-2" d="M304.16,369.9c-5.4-117.74,181.22-202,425.62-213.18,123-5.64,339.25,37.83,433.41,76,1.65.67,3.38-1.52,1.88-2.49-87.35-56.11-266.5-129.41-477.63-120.78C443,119.47,249.75,227,255.62,344.67c2.64,53,45.23,99.35,113.47,133.31a1.45,1.45,0,0,0,1.55-2.44C330.11,445.56,306,409.51,304.16,369.9Z" transform="translate(0 0)"/><path class="cls-2" d="M78.53,476.95a29.66,29.66,0,0,1-36.8-20.15h0A29.65,29.65,0,0,1,61.88,420l153.78-45a29.67,29.67,0,0,1,36.81,20.15h0A29.67,29.67,0,0,1,232.31,432Z" transform="translate(0 0)"/><path class="cls-2" d="M24.8,217.8C6.29,210.4-4.13,192.88,1.55,178.68h0C7.23,164.49,26.84,159,45.35,166.4l181.1,72.37c18.53,7.42,28.94,24.93,23.27,39.11h0c-5.66,14.2-25.29,19.7-43.82,12.3Z" transform="translate(0 0)"/><path class="cls-2" d="M205,49.56a29.81,29.81,0,0,1,2.24-42.07h0a29.75,29.75,0,0,1,42,2.57L356.72,130.42a29.79,29.79,0,0,1-2.23,42.06h0a29.78,29.78,0,0,1-42-2.55Z" transform="translate(0 0)"/></svg>